<svg width="960" height="179" viewBox="0 0 960 179" fill="none" xmlns="http://www.w3.org/2000/svg">
<path fill-rule="evenodd" clip-rule="evenodd" d="M98.194 0C87.8543 0 80.5533 5.06168 74.8171 12.0287C69.9901 17.8915 65.4282 26.1563 60.3839 35.2952C60.0209 35.9528 59.6554 36.615 59.2871 37.2811C47.8435 57.9801 17.8376 110.721 4.23649 134.554L4.23361 134.559C-2.76941 146.845 -0.692128 160.956 7.57927 170.012C16.2975 179.558 30.5615 182.163 44.0492 174.272C54.6094 168.093 65.0878 162.032 74.5163 156.578L74.5188 156.577C83.7066 151.262 91.8973 146.525 98.1948 142.817C104.422 146.481 112.503 151.153 121.567 156.392L121.576 156.398C131.094 161.899 141.694 168.027 152.368 174.272C165.855 182.163 180.119 179.558 188.838 170.012C197.109 160.956 199.186 146.845 192.183 134.559L192.18 134.554C178.579 110.721 148.573 57.9801 137.13 37.2811C136.781 36.6496 136.434 36.0216 136.09 35.3978C131.019 26.2129 126.435 17.9088 121.58 12.0217C115.836 5.05713 108.529 0 98.194 0Z" fill="#FF3A1F"/>
<path fill-rule="evenodd" clip-rule="evenodd" d="M98.194 0C87.8544 0 80.5534 5.06168 74.8171 12.0287C69.9901 17.8915 65.4282 26.1563 60.3839 35.2952C60.0209 35.9528 59.6554 36.615 59.2871 37.2811C47.8435 57.9801 17.8376 110.721 4.23649 134.554L4.23361 134.559C-2.76942 146.845 -0.692127 160.956 7.57927 170.012C16.2902 179.55 30.5375 182.158 44.0152 174.291L163.046 105.66C165.44 104.28 168.275 102.602 172.532 100.046C171.168 97.6591 170.177 95.8819 169.28 94.2745C168.557 92.9795 167.896 91.7948 167.151 90.4901L164.74 86.2645C152.925 65.565 147.874 56.7146 137.13 37.2811C136.781 36.6496 136.434 36.0216 136.09 35.3978C131.019 26.2129 126.435 17.9088 121.58 12.0217C115.836 5.05713 108.529 0 98.194 0Z" fill="white"/>
<path fill-rule="evenodd" clip-rule="evenodd" d="M534.541 36.582H558.578V78.2466L609.858 78.2466V36.582H633.895V78.2466V102.284V143.948H609.858V102.284L558.578 102.284V143.948H534.541V102.284V78.2466V36.582Z" fill="white"/>
<path fill-rule="evenodd" clip-rule="evenodd" d="M304.187 119.911C304.409 119.406 314.839 95.5819 318.53 60.6193L350.255 60.6193V119.911L304.187 119.911ZM280.149 119.911C280.401 119.25 295.77 78.7035 295.77 36.5903L295.77 36.582L350.255 36.582H374.292V60.6193V119.911H393.522V143.948L374.292 143.948H350.255H260.516L260.516 119.911H280.149Z" fill="white"/>
<path fill-rule="evenodd" clip-rule="evenodd" d="M475.419 114.577C470.222 118.433 463.787 120.714 456.819 120.714C443.925 120.714 432.855 112.904 428.081 101.758H456.706H485.557H510.733C511.631 97.8044 512.105 93.6902 512.105 89.4653C512.105 58.9319 487.352 34.1797 456.819 34.1797C426.285 34.1797 401.533 58.9319 401.533 89.4653C401.533 119.999 426.285 144.751 456.819 144.751C472.268 144.751 486.236 138.414 496.268 128.199C497.401 127.045 498.483 125.842 499.512 124.593L475.419 114.577ZM427.853 77.7204C432.495 66.2827 443.715 58.2169 456.819 58.2169C469.923 58.2169 481.143 66.2827 485.785 77.7204H427.853Z" fill="white"/>
<path fill-rule="evenodd" clip-rule="evenodd" d="M681.969 36.582H657.932V76.6441V100.681V119.911V143.948H681.969H714.019C732.604 143.948 747.671 128.882 747.671 110.296C747.671 91.7107 732.604 76.6441 714.019 76.6441H681.969V36.582ZM681.969 100.681V119.911H714.019C719.329 119.911 723.633 115.606 723.633 110.296C723.633 104.986 719.329 100.681 714.019 100.681H681.969Z" fill="white"/>
<path fill-rule="evenodd" clip-rule="evenodd" d="M859.844 36.582H883.881V110.043L935.962 36.582H959.999V143.948H935.962V70.4872L883.881 143.948H859.844V36.582Z" fill="white"/>
<path fill-rule="evenodd" clip-rule="evenodd" d="M794.143 36.582H770.105V60.6193V143.948H794.143V60.6193L835.807 60.6193V36.582H794.143Z" fill="white"/>
</svg>
