<svg width="720" height="283" viewBox="0 0 720 283" fill="none" xmlns="http://www.w3.org/2000/svg">
<path d="M95.1641 68.6758H253.646V148.381C253.646 168.814 242.746 187.695 225.052 197.913L174.405 227.158L123.759 197.913C106.064 187.695 95.1641 168.814 95.1641 148.381V68.6758Z" fill="white"/>
<path fill-rule="evenodd" clip-rule="evenodd" d="M138.66 110.625V135.415C142.05 131.587 148.214 128.996 155.261 128.996H162.919V157.814C162.919 165.481 160.836 172.192 157.745 175.883H191.057C187.972 172.188 185.894 165.486 185.894 157.829V128.996H193.553C200.6 128.996 206.763 131.587 210.153 135.415V110.625H138.66Z" fill="#333333"/>
<path d="M291.014 175.88V110.629H357.291V125.542H310.777V134.866H333.801C350.114 134.866 362.232 138.594 362.232 155.371C362.232 172.152 350.114 175.88 333.801 175.88H291.014ZM310.777 149.779V160.964H333.893C340.606 160.964 342.19 159.661 342.19 155.371C342.19 151.084 340.606 149.779 333.893 149.779H310.777Z" fill="#333333"/>
<path d="M471.64 151.643V175.88H451.877V110.629H471.64V134.4H503.985V110.629H523.748V175.88H503.985V151.643H471.64Z" fill="#333333"/>
<path d="M555.587 151.27V175.88H535.824V110.629H555.587V134.958H567.425L588.026 110.629H610.397L584.577 141.11V142.322L611.703 175.88H587.187L567.332 151.27H555.587Z" fill="#333333"/>
<path d="M420.416 166.278H389.561L386.112 175.88H365.418L391.24 110.629H419.763L445.491 175.88H423.865L420.416 166.278ZM415.103 151.365L405.968 125.638H404.289L394.968 151.365H415.103Z" fill="#333333"/>
</svg>
