<svg width="961" height="221" viewBox="0 0 961 221" fill="none" xmlns="http://www.w3.org/2000/svg">
<path d="M927.023 80.9023C937.54 80.9023 945.74 83.4591 951.626 88.5726C957.511 93.6861 960.454 100.681 960.454 109.557V156.302H941.929V148.632C939.228 151.526 935.996 153.842 932.233 155.579C928.47 157.219 924.322 158.039 919.787 158.039C911.586 158.039 904.833 155.868 899.526 151.526C894.22 147.185 891.566 141.396 891.566 134.16C891.566 127.02 894.027 121.231 898.947 116.793C903.964 112.355 910.621 110.136 918.919 110.136H941.206V108.978C941.206 105.216 939.903 102.273 937.298 100.15C934.693 97.9312 931.22 96.8217 926.878 96.8217C923.019 96.8217 920.028 97.5453 917.906 98.9925C915.783 100.44 914.336 102.176 913.564 104.203H894.027C895.184 96.7735 898.706 91.0329 904.591 86.9806C910.477 82.9284 917.954 80.9023 927.023 80.9023ZM922.392 142.409C928.181 142.409 932.764 140.914 936.141 137.923C939.517 134.835 941.206 130.783 941.206 125.766V124.608H922.392C918.726 124.608 915.88 125.428 913.854 127.069C911.827 128.612 910.814 130.783 910.814 133.581C910.814 136.186 911.827 138.309 913.854 139.949C915.976 141.589 918.822 142.409 922.392 142.409Z" fill="white"/>
<path d="M872.344 82.6387H893.039L860.766 166.288C858.837 171.208 856.762 175.019 854.543 177.721C852.324 180.422 849.574 182.352 846.294 183.51C843.11 184.667 838.961 185.246 833.848 185.246H825.454V167.445H831.532C835.006 167.445 837.562 166.867 839.203 165.709C840.843 164.551 842.435 161.994 843.978 158.039L845.715 153.697L814.311 82.6387H835.15L855.122 129.818L872.344 82.6387Z" fill="white"/>
<path d="M808.88 156.308H789.632V82.6445H808.88V156.308ZM809.314 70.3431H788.908V52.9766H809.314V70.3431Z" fill="white"/>
<path d="M769.122 156.308C761.017 156.308 754.698 154.041 750.163 149.506C745.629 144.875 743.361 138.604 743.361 130.692V52.1084H762.609V127.074C762.609 130.644 763.574 133.442 765.504 135.468C767.53 137.494 770.328 138.507 773.898 138.507H780.121V156.308H769.122Z" fill="white"/>
<path d="M692.39 158.039C685.347 158.039 678.738 156.447 672.564 153.263C666.485 149.983 661.613 145.448 657.947 139.659C654.28 133.774 652.447 127.069 652.447 119.543C652.447 112.017 654.28 105.312 657.947 99.4267C661.613 93.5414 666.485 89.0068 672.564 85.8229C678.738 82.5425 685.347 80.9023 692.39 80.9023C699.434 80.9023 705.994 82.5425 712.073 85.8229C718.247 89.0068 723.168 93.5414 726.834 99.4267C730.5 105.312 732.334 112.017 732.334 119.543C732.334 127.069 730.5 133.774 726.834 139.659C723.168 145.448 718.247 149.983 712.073 153.263C705.994 156.447 699.434 158.039 692.39 158.039ZM692.39 140.238C698.276 140.238 703.196 138.26 707.152 134.305C711.108 130.349 713.086 125.428 713.086 119.543C713.086 113.561 711.108 108.592 707.152 104.637C703.196 100.681 698.276 98.7031 692.39 98.7031C686.505 98.7031 681.585 100.681 677.629 104.637C673.673 108.592 671.695 113.561 671.695 119.543C671.695 125.428 673.673 130.349 677.629 134.305C681.585 138.26 686.505 140.238 692.39 140.238Z" fill="white"/>
<path d="M585.46 129.246L617.299 55.0039H642.625V156.309H622.654V87.4215L592.986 156.309H577.501L547.833 87.4215V156.309H527.861V55.0039H553.477L585.46 129.246Z" fill="white"/>
<path d="M473.019 80.9023C483.536 80.9023 491.737 83.4591 497.622 88.5726C503.507 93.6861 506.45 100.681 506.45 109.557V156.302H487.926V148.632C485.224 151.526 481.992 153.842 478.229 155.579C474.466 157.219 470.318 158.039 465.783 158.039C457.582 158.039 450.829 155.868 445.522 151.526C440.216 147.185 437.562 141.396 437.562 134.16C437.562 127.02 440.023 121.231 444.943 116.793C449.96 112.355 456.617 110.136 464.915 110.136H487.202V108.978C487.202 105.216 485.9 102.273 483.295 100.15C480.69 97.9312 477.216 96.8217 472.875 96.8217C469.015 96.8217 466.024 97.5453 463.902 98.9925C461.779 100.44 460.332 102.176 459.56 104.203H440.023C441.181 96.7735 444.702 91.0329 450.587 86.9806C456.473 82.9284 463.95 80.9023 473.019 80.9023ZM468.388 142.409C474.177 142.409 478.76 140.914 482.137 137.923C485.514 134.835 487.202 130.783 487.202 125.766V124.608H468.388C464.722 124.608 461.876 125.428 459.85 127.069C457.824 128.612 456.81 130.783 456.81 133.581C456.81 136.186 457.824 138.309 459.85 139.949C461.972 141.589 464.818 142.409 468.388 142.409Z" fill="white"/>
<path d="M397.733 80.9023C403.522 80.9023 408.683 82.3013 413.218 85.0993C417.753 87.8007 421.274 91.5635 423.783 96.3875C426.388 101.212 427.69 106.615 427.69 112.596V156.302H408.442V116.214C408.442 110.908 407.043 106.663 404.245 103.479C401.544 100.295 397.781 98.7031 392.957 98.7031C388.229 98.7031 384.322 100.343 381.235 103.624C378.147 106.807 376.603 111.004 376.603 116.214V156.302H357.355V82.639H375.88V90.1645C381.958 83.9897 389.242 80.9023 397.733 80.9023Z" fill="white"/>
<path d="M301.24 158.046C292.942 158.046 285.658 156.357 279.387 152.98C273.212 149.507 268.436 144.683 265.059 138.508C261.779 132.237 260.139 125.097 260.139 117.089V55.0039H280.4V115.932C280.4 122.878 282.185 128.522 285.754 132.864C289.421 137.109 294.582 139.232 301.24 139.232C307.993 139.232 313.155 137.109 316.725 132.864C320.391 128.522 322.224 122.878 322.224 115.932V55.0039H342.485V117.089C342.485 125.097 340.797 132.237 337.42 138.508C334.043 144.683 329.219 149.507 322.948 152.98C316.773 156.357 309.537 158.046 301.24 158.046Z" fill="white"/>
<path d="M67.4082 20.8877L78.1936 31.6731V77.7514H32.1156L21.3301 66.9659L32.7528 32.3104L67.4082 20.8877Z" fill="white"/>
<path d="M67.4082 199.782L78.1936 188.997V142.919H32.1156L21.3301 153.704L32.7528 188.36L67.4082 199.782Z" fill="white"/>
<path d="M143.379 77.7514H189.457L200.242 66.9659L188.82 32.3104L154.164 20.8877L143.379 31.6731V77.7514Z" fill="white"/>
<path d="M143.379 142.919H189.457L200.242 153.704L188.82 188.36L154.164 199.782L143.379 188.997V142.919Z" fill="white"/>
<path d="M110.787 64.266L124.283 77.7621H143.37V31.6836L110.787 64.266Z" fill="white" fill-opacity="0.75"/>
<path d="M110.787 64.266L97.2908 77.7621H78.2046V31.6836L110.787 64.266Z" fill="white" fill-opacity="0.75"/>
<path d="M110.787 156.431L97.2908 142.935H78.2046V189.014L110.787 156.431Z" fill="white" fill-opacity="0.75"/>
<path d="M110.787 156.431L124.283 142.935H143.37V189.014L110.787 156.431Z" fill="white" fill-opacity="0.75"/>
<path d="M143.379 142.927L143.379 123.841L156.875 110.345L189.457 142.927H143.379Z" fill="white" fill-opacity="0.75"/>
<path d="M143.379 77.7623L143.379 96.8488L156.875 110.345L189.457 77.7623H143.379Z" fill="white" fill-opacity="0.75"/>
<path d="M78.2031 77.7623L78.2029 96.8488L64.707 110.345L32.1246 77.7623H78.2031Z" fill="white" fill-opacity="0.75"/>
<path d="M78.2031 142.927L78.2029 123.841L64.707 110.345L32.1246 142.927H78.2031Z" fill="white" fill-opacity="0.75"/>
<path d="M124.281 77.7644L110.785 64.2686L97.2891 77.7644H124.281Z" fill="white" fill-opacity="0.5"/>
<path d="M124.281 142.933L110.785 156.429L97.2891 142.933H124.281Z" fill="white" fill-opacity="0.5"/>
<path d="M143.379 123.838L156.876 110.342L143.379 96.8457V123.838Z" fill="white" fill-opacity="0.5"/>
<path d="M143.354 96.8477L143.354 77.7607L124.268 77.7612L143.354 96.8477Z" fill="white" fill-opacity="0.5"/>
<path d="M143.354 123.83L143.354 142.917L124.268 142.917L143.354 123.83Z" fill="white" fill-opacity="0.5"/>
<path d="M78.2026 96.8477L78.2024 77.7607L97.2891 77.7612L78.2026 96.8477Z" fill="white" fill-opacity="0.5"/>
<path d="M78.2026 123.83L78.2024 142.917L97.2891 142.917L78.2026 123.83Z" fill="white" fill-opacity="0.5"/>
<path d="M78.209 123.838L64.7124 110.342L78.209 96.8457V123.838Z" fill="white" fill-opacity="0.5"/>
<path d="M143.367 96.8506V123.843L124.282 142.928H97.29L78.2031 123.841V96.8506L97.29 77.7637H124.28L143.367 96.8506Z" fill="white" fill-opacity="0.1"/>
<path d="M156.871 110.343L189.453 77.7607H204.706L221.134 110.343L204.706 142.925H189.453L156.871 110.343Z" fill="white"/>
<path d="M64.7031 110.343L32.1211 77.7607H16.868L0.439963 110.343L16.868 142.925H32.1209L64.7031 110.343Z" fill="white"/>
<path d="M78.2031 16.428L110.785 0L143.368 16.428V31.6809L110.785 64.2631L78.2031 31.6809V16.428Z" fill="white"/>
<path d="M78.2031 204.256L110.785 220.684L143.368 204.256V189.003L110.785 156.421L78.2031 189.003V204.256Z" fill="white"/>
</svg>
