<svg width="1920" height="1080" viewBox="0 0 1920 1080" fill="none" xmlns="http://www.w3.org/2000/svg">
<mask id="mask0_2001_3791" style="mask-type:alpha" maskUnits="userSpaceOnUse" x="0" y="0" width="1920" height="1080">
<rect width="1920" height="1080" fill="url(#paint0_linear_2001_3791)"/>
</mask>
<g mask="url(#mask0_2001_3791)">
<path fill-rule="evenodd" clip-rule="evenodd" d="M58.8852 479.75L-8.78086e-06 538.551L58.9189 597.433L58.9183 680.61L142.094 680.608L142.115 680.628L142.133 680.628L200.942 739.434L259.746 680.628L259.782 680.628L259.803 680.608L342.996 680.61L342.995 597.415L343.002 597.408L343.002 597.352L401.806 538.551L343.002 479.748L343.002 479.727L342.995 479.721L342.996 396.505L259.794 396.521L200.942 337.631L142.12 396.521L58.9183 396.505L58.9189 479.717L58.8945 479.741L58.8852 479.75ZM96.3846 433.978L96.385 495.235L85.3679 506.253L53.0123 538.562L96.385 581.914L96.3846 643.143L157.615 643.141L157.636 643.162L157.652 643.162L200.941 686.449L244.227 643.162L244.261 643.162L244.282 643.141L305.53 643.143L305.529 581.888L305.536 581.882L305.536 581.832L348.82 538.55L305.536 495.267L305.536 495.238L305.529 495.232L305.53 433.978L244.271 433.99L200.949 390.64L157.649 433.99L96.3846 433.978Z" fill="white" fill-opacity="0.05"/>
<path fill-rule="evenodd" clip-rule="evenodd" d="M58.893 -25.6775L0.00780372 33.1231L58.9267 92.0051L58.9261 175.182L142.102 175.18L142.123 175.2L142.141 175.2L200.95 234.006L259.754 175.2L259.79 175.2L259.81 175.18L343.004 175.182L343.003 91.9873L343.01 91.9806L343.01 91.9241L401.814 33.1231L343.01 -25.68L343.01 -25.7005L343.003 -25.7071L343.004 -108.922L259.802 -108.907L200.95 -167.797L142.128 -108.907L58.9261 -108.922L58.9267 -25.7111L58.9023 -25.6867L58.893 -25.6775ZM96.3924 -71.4495L96.3929 -10.1923L85.3757 0.824861L53.0201 33.1339L96.3929 76.4863L96.3924 137.715L157.623 137.714L157.644 137.734L157.66 137.734L200.949 181.021L244.235 137.734L244.268 137.734L244.289 137.714L305.537 137.715L305.537 76.4605L305.544 76.4538L305.544 76.4046L348.828 33.1226L305.544 -10.1609L305.544 -10.1895L305.537 -10.1962L305.537 -71.4495L244.279 -71.4381L200.956 -114.788L157.656 -71.4381L96.3924 -71.4495Z" fill="white" fill-opacity="0.05"/>
<path fill-rule="evenodd" clip-rule="evenodd" d="M565.504 479.754L506.619 538.555L565.538 597.437L565.537 680.614L648.713 680.612L648.734 680.632L648.753 680.632L707.561 739.437L766.365 680.632L766.401 680.632L766.422 680.612L849.615 680.614L849.614 597.419L849.621 597.412L849.621 597.356L908.425 538.555L849.621 479.752L849.621 479.731L849.614 479.725L849.615 396.509L766.413 396.525L707.561 337.635L648.739 396.525L565.537 396.509L565.538 479.721L565.514 479.745L565.504 479.754ZM603.004 433.982L603.004 495.239L591.987 506.257L559.631 538.566L603.004 581.918L603.004 643.147L664.235 643.145L664.255 643.166L664.271 643.166L707.56 686.453L750.846 643.166L750.88 643.166L750.901 643.145L812.149 643.147L812.148 581.892L812.155 581.885L812.155 581.836L855.439 538.554L812.155 495.271L812.155 495.242L812.148 495.235L812.149 433.982L750.891 433.994L707.568 390.643L664.268 433.994L603.004 433.982Z" fill="white" fill-opacity="0.05"/>
<path fill-rule="evenodd" clip-rule="evenodd" d="M565.504 -25.6775L506.619 33.1231L565.538 92.0051L565.537 175.182L648.713 175.18L648.734 175.2L648.753 175.2L707.561 234.006L766.365 175.2L766.401 175.2L766.422 175.18L849.615 175.182L849.614 91.9873L849.621 91.9806L849.621 91.9241L908.425 33.1231L849.621 -25.68L849.621 -25.7005L849.614 -25.7071L849.615 -108.922L766.413 -108.907L707.561 -167.797L648.739 -108.907L565.537 -108.922L565.538 -25.7111L565.514 -25.6867L565.504 -25.6775ZM603.004 -71.4495L603.004 -10.1923L591.987 0.824861L559.631 33.1339L603.004 76.4863L603.004 137.715L664.235 137.714L664.255 137.734L664.271 137.734L707.56 181.021L750.846 137.734L750.88 137.734L750.901 137.714L812.149 137.715L812.148 76.4605L812.155 76.4538L812.155 76.4046L855.439 33.1226L812.155 -10.1609L812.155 -10.1895L812.148 -10.1962L812.149 -71.4495L750.891 -71.4381L707.568 -114.788L664.268 -71.4381L603.004 -71.4495Z" fill="white" fill-opacity="0.05"/>
<path fill-rule="evenodd" clip-rule="evenodd" d="M1071.48 479.754L1012.59 538.555L1071.51 597.437L1071.51 680.614L1154.68 680.612L1154.7 680.632L1154.72 680.632L1213.53 739.437L1272.34 680.632L1272.37 680.632L1272.39 680.612L1355.59 680.614L1355.59 597.419L1355.59 597.412L1355.59 597.356L1414.4 538.555L1355.59 479.752L1355.59 479.731L1355.59 479.725L1355.59 396.509L1272.38 396.525L1213.53 337.635L1154.71 396.525L1071.51 396.509L1071.51 479.721L1071.48 479.745L1071.48 479.754ZM1108.97 433.982L1108.97 495.239L1097.96 506.257L1065.6 538.566L1108.97 581.918L1108.97 643.147L1170.21 643.145L1170.23 643.166L1170.24 643.166L1213.53 686.453L1256.82 643.166L1256.85 643.166L1256.87 643.145L1318.12 643.147L1318.12 581.892L1318.13 581.885L1318.13 581.836L1361.41 538.554L1318.13 495.271L1318.13 495.242L1318.12 495.235L1318.12 433.982L1256.86 433.994L1213.54 390.643L1170.24 433.994L1108.97 433.982Z" fill="white" fill-opacity="0.05"/>
<path fill-rule="evenodd" clip-rule="evenodd" d="M1071.48 -25.6775L1012.6 33.1231L1071.51 92.0051L1071.51 175.182L1154.69 175.18L1154.71 175.2L1154.73 175.2L1213.54 234.006L1272.34 175.2L1272.38 175.2L1272.4 175.18L1355.59 175.182L1355.59 91.9873L1355.6 91.9806L1355.6 91.9241L1414.4 33.1231L1355.6 -25.68L1355.6 -25.7005L1355.59 -25.7071L1355.59 -108.922L1272.39 -108.907L1213.54 -167.797L1154.72 -108.907L1071.51 -108.922L1071.51 -25.7111L1071.49 -25.6867L1071.48 -25.6775ZM1108.98 -71.4495L1108.98 -10.1923L1097.96 0.824861L1065.61 33.1339L1108.98 76.4863L1108.98 137.715L1170.21 137.714L1170.23 137.734L1170.25 137.734L1213.54 181.021L1256.82 137.734L1256.86 137.734L1256.88 137.714L1318.13 137.715L1318.12 76.4605L1318.13 76.4538L1318.13 76.4046L1361.42 33.1226L1318.13 -10.1609L1318.13 -10.1895L1318.12 -10.1962L1318.13 -71.4495L1256.87 -71.4381L1213.54 -114.788L1170.24 -71.4381L1108.98 -71.4495Z" fill="white" fill-opacity="0.05"/>
<path fill-rule="evenodd" clip-rule="evenodd" d="M1577.08 479.75L1518.19 538.551L1577.11 597.433L1577.11 680.61L1660.29 680.608L1660.31 680.628L1660.33 680.628L1719.14 739.434L1777.94 680.628L1777.98 680.628L1778 680.608L1861.19 680.61L1861.19 597.415L1861.2 597.408L1861.2 597.352L1920 538.551L1861.2 479.748L1861.2 479.727L1861.19 479.721L1861.19 396.505L1777.99 396.521L1719.14 337.631L1660.31 396.521L1577.11 396.505L1577.11 479.717L1577.09 479.741L1577.08 479.75ZM1614.58 433.978L1614.58 495.235L1603.56 506.253L1571.21 538.562L1614.58 581.914L1614.58 643.143L1675.81 643.141L1675.83 643.162L1675.85 643.162L1719.13 686.449L1762.42 643.162L1762.45 643.162L1762.47 643.141L1823.72 643.143L1823.72 581.888L1823.73 581.882L1823.73 581.832L1867.01 538.55L1823.73 495.267L1823.73 495.238L1823.72 495.232L1823.72 433.978L1762.46 433.99L1719.14 390.64L1675.84 433.99L1614.58 433.978Z" fill="white" fill-opacity="0.05"/>
<path fill-rule="evenodd" clip-rule="evenodd" d="M1577.08 -25.6775L1518.19 33.1231L1577.11 92.0051L1577.11 175.182L1660.29 175.18L1660.31 175.2L1660.33 175.2L1719.14 234.006L1777.94 175.2L1777.98 175.2L1778 175.18L1861.19 175.182L1861.19 91.9873L1861.2 91.9806L1861.2 91.9241L1920 33.1231L1861.2 -25.68L1861.2 -25.7005L1861.19 -25.7071L1861.19 -108.922L1777.99 -108.907L1719.14 -167.797L1660.31 -108.907L1577.11 -108.922L1577.11 -25.7111L1577.09 -25.6867L1577.08 -25.6775ZM1614.58 -71.4495L1614.58 -10.1923L1603.56 0.824861L1571.21 33.1339L1614.58 76.4863L1614.58 137.715L1675.81 137.714L1675.83 137.734L1675.85 137.734L1719.13 181.021L1762.42 137.734L1762.45 137.734L1762.47 137.714L1823.72 137.715L1823.72 76.4605L1823.73 76.4538L1823.73 76.4046L1867.01 33.1226L1823.73 -10.1609L1823.73 -10.1895L1823.72 -10.1962L1823.72 -71.4495L1762.46 -71.4381L1719.14 -114.788L1675.84 -71.4381L1614.58 -71.4495Z" fill="white" fill-opacity="0.05"/>
<path fill-rule="evenodd" clip-rule="evenodd" d="M565.504 986.369L506.619 1045.17L565.538 1104.05L565.537 1187.23L648.713 1187.23L648.734 1187.25L648.753 1187.25L707.561 1246.05L766.365 1187.25L766.401 1187.25L766.422 1187.23L849.615 1187.23L849.614 1104.03L849.621 1104.03L849.621 1103.97L908.425 1045.17L849.621 986.367L849.621 986.346L849.614 986.34L849.615 903.124L766.413 903.14L707.561 844.25L648.739 903.14L565.537 903.124L565.538 986.336L565.514 986.36L565.504 986.369ZM603.004 940.597L603.004 1001.85L591.987 1012.87L559.631 1045.18L603.004 1088.53L603.004 1149.76L664.235 1149.76L664.255 1149.78L664.271 1149.78L707.56 1193.07L750.846 1149.78L750.88 1149.78L750.901 1149.76L812.149 1149.76L812.148 1088.51L812.155 1088.5L812.155 1088.45L855.439 1045.17L812.155 1001.89L812.155 1001.86L812.148 1001.85L812.149 940.597L750.891 940.609L707.568 897.259L664.268 940.609L603.004 940.597Z" fill="white" fill-opacity="0.05"/>
<path fill-rule="evenodd" clip-rule="evenodd" d="M1071.48 986.369L1012.59 1045.17L1071.51 1104.05L1071.51 1187.23L1154.68 1187.23L1154.7 1187.25L1154.72 1187.25L1213.53 1246.05L1272.34 1187.25L1272.37 1187.25L1272.39 1187.23L1355.59 1187.23L1355.59 1104.03L1355.59 1104.03L1355.59 1103.97L1414.4 1045.17L1355.59 986.367L1355.59 986.346L1355.59 986.34L1355.59 903.124L1272.38 903.14L1213.53 844.25L1154.71 903.14L1071.51 903.124L1071.51 986.336L1071.48 986.36L1071.48 986.369ZM1108.97 940.597L1108.97 1001.85L1097.96 1012.87L1065.6 1045.18L1108.97 1088.53L1108.97 1149.76L1170.21 1149.76L1170.23 1149.78L1170.24 1149.78L1213.53 1193.07L1256.82 1149.78L1256.85 1149.78L1256.87 1149.76L1318.12 1149.76L1318.12 1088.51L1318.13 1088.5L1318.13 1088.45L1361.41 1045.17L1318.13 1001.89L1318.13 1001.86L1318.12 1001.85L1318.12 940.597L1256.86 940.609L1213.54 897.259L1170.24 940.609L1108.97 940.597Z" fill="white" fill-opacity="0.05"/>
<path fill-rule="evenodd" clip-rule="evenodd" d="M1577.08 986.369L1518.19 1045.17L1577.11 1104.05L1577.11 1187.23L1660.29 1187.23L1660.31 1187.25L1660.33 1187.25L1719.14 1246.05L1777.94 1187.25L1777.98 1187.25L1778 1187.23L1861.19 1187.23L1861.19 1104.03L1861.2 1104.03L1861.2 1103.97L1920 1045.17L1861.2 986.367L1861.2 986.346L1861.19 986.34L1861.19 903.124L1777.99 903.14L1719.14 844.25L1660.31 903.14L1577.11 903.124L1577.11 986.336L1577.09 986.36L1577.08 986.369ZM1614.58 940.597L1614.58 1001.85L1603.56 1012.87L1571.21 1045.18L1614.58 1088.53L1614.58 1149.76L1675.81 1149.76L1675.83 1149.78L1675.85 1149.78L1719.13 1193.07L1762.42 1149.78L1762.45 1149.78L1762.47 1149.76L1823.72 1149.76L1823.72 1088.51L1823.73 1088.5L1823.73 1088.45L1867.01 1045.17L1823.73 1001.89L1823.73 1001.86L1823.72 1001.85L1823.72 940.597L1762.46 940.609L1719.14 897.259L1675.84 940.609L1614.58 940.597Z" fill="white" fill-opacity="0.05"/>
<path fill-rule="evenodd" clip-rule="evenodd" d="M58.893 986.366L0.00780372 1045.17L58.9267 1104.05L58.9261 1187.22L142.102 1187.22L142.123 1187.24L142.141 1187.24L200.95 1246.05L259.754 1187.24L259.79 1187.24L259.81 1187.22L343.004 1187.22L343.003 1104.03L343.01 1104.02L343.01 1103.97L401.814 1045.17L343.01 986.363L343.01 986.343L343.003 986.336L343.004 903.121L259.802 903.136L200.95 844.246L142.128 903.136L58.9261 903.121L58.9267 986.332L58.9023 986.356L58.893 986.366ZM96.3924 940.593L96.3929 1001.85L85.3757 1012.87L53.0201 1045.18L96.3929 1088.53L96.3924 1149.76L157.623 1149.76L157.644 1149.78L157.66 1149.78L200.949 1193.06L244.235 1149.78L244.268 1149.78L244.289 1149.76L305.537 1149.76L305.537 1088.5L305.544 1088.5L305.544 1088.45L348.828 1045.17L305.544 1001.88L305.544 1001.85L305.537 1001.85L305.537 940.593L244.279 940.605L200.956 897.255L157.656 940.605L96.3924 940.593Z" fill="white" fill-opacity="0.05"/>
<rect x="759.93" y="791.841" width="74.1128" height="74.1128" transform="rotate(135 759.93 791.841)" fill="white" fill-opacity="0.05"/>
<rect x="759.93" y="286.409" width="74.1128" height="74.1128" transform="rotate(135 759.93 286.409)" fill="white" fill-opacity="0.05"/>
<rect x="1265.9" y="791.841" width="74.1128" height="74.1128" transform="rotate(135 1265.9 791.841)" fill="white" fill-opacity="0.05"/>
<rect x="1265.89" y="286.409" width="74.1128" height="74.1128" transform="rotate(135 1265.89 286.409)" fill="white" fill-opacity="0.05"/>
<rect x="1771.5" y="791.842" width="74.1128" height="74.1128" transform="rotate(135 1771.5 791.842)" fill="white" fill-opacity="0.05"/>
<rect x="1771.5" y="286.41" width="74.1128" height="74.1128" transform="rotate(135 1771.5 286.41)" fill="white" fill-opacity="0.05"/>
<rect x="506.619" y="1045.15" width="74.1128" height="74.1128" transform="rotate(135 506.619 1045.15)" fill="white" fill-opacity="0.05"/>
<rect x="1012.59" y="1045.15" width="74.1128" height="74.1128" transform="rotate(135 1012.59 1045.15)" fill="white" fill-opacity="0.05"/>
<rect x="1518.19" y="1045.15" width="74.1128" height="74.1128" transform="rotate(135 1518.19 1045.15)" fill="white" fill-opacity="0.05"/>
<rect x="506.619" y="538.531" width="74.1128" height="74.1128" transform="rotate(135 506.619 538.531)" fill="white" fill-opacity="0.05"/>
<rect x="506.619" y="33.1055" width="74.1128" height="74.1128" transform="rotate(135 506.619 33.1055)" fill="white" fill-opacity="0.05"/>
<rect x="1012.59" y="538.535" width="74.1128" height="74.1128" transform="rotate(135 1012.59 538.535)" fill="white" fill-opacity="0.05"/>
<rect x="1012.59" y="33.1055" width="74.1128" height="74.1128" transform="rotate(135 1012.59 33.1055)" fill="white" fill-opacity="0.05"/>
<rect x="1518.19" y="538.531" width="74.1128" height="74.1128" transform="rotate(135 1518.19 538.531)" fill="white" fill-opacity="0.05"/>
<rect x="1518.19" y="33.1055" width="74.1128" height="74.1128" transform="rotate(135 1518.19 33.1055)" fill="white" fill-opacity="0.05"/>
<rect x="253.312" y="791.841" width="74.1128" height="74.1128" transform="rotate(135 253.312 791.841)" fill="white" fill-opacity="0.05"/>
<rect x="253.312" y="286.409" width="74.1128" height="74.1128" transform="rotate(135 253.312 286.409)" fill="white" fill-opacity="0.05"/>
<path d="M369.828 820.482C376.195 829.742 386.712 835.274 397.95 835.274L410.788 835.274L410.788 848.11C410.788 859.348 416.32 869.866 425.58 876.232L454.219 895.924L482.859 876.232C492.119 869.866 497.651 859.348 497.651 848.11L497.651 835.274L510.486 835.274C521.724 835.274 532.241 829.742 538.608 820.482L558.299 791.842L538.608 763.203C532.241 753.943 521.724 748.41 510.486 748.41L497.651 748.41L497.651 735.575C497.651 724.337 492.119 713.82 482.859 707.453L454.219 687.761L425.58 707.453C416.32 713.82 410.788 724.337 410.788 735.575L410.788 748.41L397.95 748.41C386.712 748.41 376.195 753.943 369.828 763.203L350.137 791.842L369.828 820.482Z" fill="white" fill-opacity="0.05"/>
<path d="M369.828 315.05C376.195 324.31 386.712 329.842 397.95 329.842L410.788 329.842L410.788 342.679C410.788 353.917 416.32 364.434 425.58 370.801L454.219 390.492L482.859 370.801C492.119 364.434 497.651 353.917 497.651 342.679L497.651 329.842L510.486 329.842C521.724 329.842 532.241 324.31 538.608 315.05L558.299 286.41L538.608 257.771C532.241 248.511 521.724 242.979 510.486 242.979L497.651 242.979L497.651 230.143C497.651 218.905 492.119 208.388 482.859 202.021L454.219 182.33L425.58 202.021C416.32 208.388 410.788 218.905 410.788 230.143L410.788 242.979L397.95 242.979C386.712 242.979 376.195 248.511 369.828 257.771L350.137 286.41L369.828 315.05Z" fill="white" fill-opacity="0.05"/>
<path d="M875.791 820.482C882.158 829.742 892.675 835.274 903.913 835.274L916.751 835.274L916.751 848.11C916.751 859.348 922.283 869.866 931.543 876.232L960.182 895.924L988.822 876.232C998.082 869.866 1003.61 859.348 1003.61 848.11L1003.61 835.274L1016.45 835.274C1027.69 835.274 1038.2 829.742 1044.57 820.482L1064.26 791.842L1044.57 763.203C1038.2 753.943 1027.69 748.41 1016.45 748.41L1003.61 748.41L1003.61 735.575C1003.61 724.337 998.082 713.82 988.822 707.453L960.182 687.761L931.543 707.453C922.283 713.82 916.751 724.337 916.751 735.575L916.751 748.41L903.913 748.41C892.675 748.41 882.158 753.943 875.791 763.203L856.1 791.842L875.791 820.482Z" fill="white" fill-opacity="0.05"/>
<path d="M875.791 315.05C882.158 324.31 892.675 329.842 903.913 329.842L916.751 329.842L916.751 342.679C916.751 353.917 922.283 364.434 931.543 370.801L960.182 390.492L988.822 370.801C998.082 364.434 1003.61 353.917 1003.61 342.679L1003.61 329.842L1016.45 329.842C1027.69 329.842 1038.2 324.31 1044.57 315.05L1064.26 286.41L1044.57 257.771C1038.2 248.511 1027.69 242.979 1016.45 242.979L1003.61 242.979L1003.61 230.143C1003.61 218.905 998.082 208.388 988.822 202.021L960.182 182.33L931.543 202.021C922.283 208.388 916.751 218.905 916.751 230.143L916.751 242.979L903.913 242.979C892.675 242.979 882.158 248.511 875.791 257.771L856.1 286.41L875.791 315.05Z" fill="white" fill-opacity="0.05"/>
<path d="M1381.4 820.482C1387.77 829.742 1398.28 835.274 1409.52 835.274L1422.36 835.274L1422.36 848.11C1422.36 859.348 1427.89 869.866 1437.15 876.232L1465.79 895.924L1494.43 876.232C1503.69 869.866 1509.22 859.348 1509.22 848.11L1509.22 835.274L1522.06 835.274C1533.29 835.274 1543.81 829.742 1550.18 820.482L1569.87 791.842L1550.18 763.203C1543.81 753.943 1533.29 748.41 1522.06 748.41L1509.22 748.41L1509.22 735.575C1509.22 724.337 1503.69 713.82 1494.43 707.453L1465.79 687.761L1437.15 707.453C1427.89 713.82 1422.36 724.337 1422.36 735.575L1422.36 748.41L1409.52 748.41C1398.28 748.41 1387.77 753.943 1381.4 763.203L1361.71 791.842L1381.4 820.482Z" fill="white" fill-opacity="0.05"/>
<path d="M1381.4 315.05C1387.77 324.31 1398.28 329.842 1409.52 329.842L1422.36 329.842L1422.36 342.679C1422.36 353.917 1427.89 364.434 1437.15 370.801L1465.79 390.492L1494.43 370.801C1503.69 364.434 1509.22 353.917 1509.22 342.679L1509.22 329.842L1522.06 329.842C1533.29 329.842 1543.81 324.31 1550.18 315.05L1569.87 286.41L1550.18 257.771C1543.81 248.511 1533.29 242.979 1522.06 242.979L1509.22 242.979L1509.22 230.143C1509.22 218.905 1503.69 208.388 1494.43 202.021L1465.79 182.33L1437.15 202.021C1427.89 208.388 1422.36 218.905 1422.36 230.143L1422.36 242.979L1409.52 242.979C1398.28 242.979 1387.77 248.511 1381.4 257.771L1361.71 286.41L1381.4 315.05Z" fill="white" fill-opacity="0.05"/>
</g>
<defs>
<linearGradient id="paint0_linear_2001_3791" x1="960" y1="702.5" x2="960" y2="1080" gradientUnits="userSpaceOnUse">
<stop stop-color="#D9D9D9"/>
<stop offset="1" stop-color="#737373" stop-opacity="0"/>
</linearGradient>
</defs>
</svg>
