<svg width="960" height="399" viewBox="0 0 960 399" fill="none" xmlns="http://www.w3.org/2000/svg">
<path d="M333.828 206.275C331.085 202.331 327.484 199.245 322.855 196.845C325.598 194.959 327.998 192.558 329.884 189.815C332.971 185.357 334.514 180.385 334.514 174.727C334.514 169.068 332.628 163.067 328.856 158.609C325.255 154.151 320.283 150.551 314.282 147.807C308.452 145.236 301.937 143.521 294.735 142.835C292.506 142.835 290.449 142.492 288.22 142.492C283.076 142.492 277.761 143.007 272.446 144.035C264.901 145.407 257.529 147.979 250.67 151.58L247.927 152.951L256.671 174.898L260.101 172.84C264.216 170.44 268.674 168.554 273.303 167.354C277.932 165.982 282.39 165.468 286.677 165.468H287.705C291.478 165.468 294.907 165.982 297.993 166.839C301.079 167.697 303.651 169.068 305.366 170.954C306.909 172.498 307.766 174.384 307.766 176.956C307.766 179.527 306.566 182.099 304.166 183.985C301.594 185.871 297.65 186.9 292.506 186.9H265.93V208.675H294.049C300.051 208.675 304.68 209.704 308.109 211.762C311.024 213.476 312.396 215.877 312.396 219.306C312.396 222.735 311.538 224.621 309.481 226.679C307.252 228.908 304.166 230.451 300.222 231.651C296.45 232.68 292.335 233.366 287.877 233.366C283.419 233.366 287.191 233.366 286.848 233.366C281.876 233.366 276.732 232.508 271.588 230.965C266.616 229.422 261.815 227.193 257.7 224.278L254.271 222.049L245.184 242.453L247.584 243.996C253.585 247.768 259.929 250.683 266.616 252.741C273.303 254.627 280.161 255.827 286.848 256.17H290.792C296.107 256.17 301.251 255.655 306.223 254.627C312.396 253.255 317.882 251.197 322.855 248.454C327.827 245.539 331.771 241.939 334.685 237.652C337.6 233.194 339.143 228.05 339.143 222.392C339.143 216.734 337.429 211.076 334.171 206.447H333.828V206.275Z" fill="white"/>
<path d="M395.209 144.035L344.457 254.626H372.233L382.692 230.622H431.215L441.674 254.626H469.794L418.87 144.035H395.209ZM392.294 208.847L407.04 175.069L421.785 208.847H392.294Z" fill="white"/>
<path d="M710.698 144.035L671.091 209.704L630.97 144.035H609.537V254.455H634.913V195.13L664.576 242.624H677.092L706.583 194.273L706.755 254.455H732.302L731.959 144.035H710.698Z" fill="white"/>
<path d="M784.766 209.704H836.032V187.414H784.766V166.839H842.376V144.035H758.361V254.455H844.605V231.651H784.766V209.704Z" fill="white"/>
<path d="M954.341 162.724C950.397 156.723 944.568 151.922 937.366 148.664C930.337 145.578 921.764 143.863 911.819 143.863H862.953V254.969H889.358V224.449H911.648C921.421 224.449 929.994 222.906 937.024 219.648C944.396 216.391 950.054 211.761 953.998 205.589C957.942 199.588 959.999 192.215 959.999 183.985C959.999 175.755 957.942 168.553 953.998 162.381L954.341 162.724ZM928.279 197.016C924.507 200.102 918.677 201.645 910.962 201.645H889.529V167.01H910.962C918.849 167.01 924.679 168.553 928.279 171.64C931.88 174.554 933.766 178.67 933.766 184.328C933.766 189.986 932.051 194.101 928.279 197.016Z" fill="white"/>
<path d="M508.372 211.419V144.035H482.311V254.455H505.629L557.41 187.414V254.455H583.643V144.035H560.153L508.372 211.419Z" fill="white"/>
<path d="M560.153 107.855H510.43V130.66H560.153V107.855Z" fill="white"/>
<path d="M130.652 113.173C130.652 109.743 133.396 107 136.825 107H177.289C180.718 107 183.462 109.743 183.462 113.173V159.809H130.652V113.173Z" fill="white"/>
<path d="M130.652 172.328H183.462V218.965C183.462 222.394 180.718 225.138 177.289 225.138H130.652V172.328Z" fill="white"/>
<path d="M65.3223 178.501C65.3223 175.071 68.0656 172.328 71.4948 172.328H118.132V225.138H65.3223V178.501Z" fill="white"/>
<path d="M65.3223 237.652H118.132V284.289C118.132 287.718 115.388 290.462 111.959 290.462H65.3223V237.652Z" fill="white"/>
<path d="M0 243.825C0 240.396 2.74335 237.652 6.17253 237.652H52.8095V290.462H6.17253C2.74335 290.462 0 287.718 0 284.289V243.996V243.825Z" fill="white"/>
</svg>
