<svg width="900" height="900" viewBox="0 0 900 900" fill="none" xmlns="http://www.w3.org/2000/svg">
<path fill-rule="evenodd" clip-rule="evenodd" d="M498.422 751.504C580.096 788.822 632.771 727.795 625.964 675.791C617.056 607.71 538.826 597.726 518.488 644.654C505.014 675.753 539.928 684.563 546.414 668.895C549.894 660.492 557.992 654.777 567.093 654.891C578.688 655.032 587.747 664.231 589.363 678.888C591.508 698.374 579.057 716.455 560.273 722.006C536.683 728.983 516.853 723.684 499.173 708.984C477.446 690.92 467.019 663.666 472.437 635.976C481.4 590.169 514.126 575.875 554.423 571.788C503.756 554.246 484.769 523.2 490.352 484.657C521.991 479.089 563.24 500.578 574.906 551.438C576.599 523.408 583.276 496.838 618.5 478.642C629.087 473.171 648.823 466.362 670.082 474.14C735.235 497.983 740.576 547.652 709.215 573.078C676.327 599.745 643.496 572.381 672.478 543.02C681.991 533.382 678.987 516.753 665.743 510.666C650.164 503.509 641.514 512.919 632.828 522.998C615.888 542.658 614.047 568.424 623.83 587.478C633.667 606.638 662.079 633.141 698.439 623.589C793.563 598.597 759.484 492.01 759.554 492.047C839.098 532.411 900 448.118 900 448.118C900 448.118 840.962 376.187 766.308 400.28C765.661 400.487 764.763 400.373 764.376 400.932C778.294 380.732 779.19 359.47 776.501 346.682C773.608 324.589 763.099 304.083 746.505 289.186C714.243 260.228 667.637 255.31 635.849 302.704C623.334 321.363 622.053 350.465 637.752 367.683C649.553 380.625 669.316 387.999 679.517 374.445C687.035 364.458 689.787 354.22 668.693 340.914C649.12 328.565 677.542 295.799 701.617 306.963C704.336 308.222 753.746 325.338 728.948 381.842C718.785 404.994 693.941 418.095 668.834 421.185C621.839 426.97 589.615 397.096 585.595 347.994C556.011 409.762 498.671 405.9 496.58 403.801L496.512 403.733C494.422 401.628 489.471 341.759 552.895 315.079C503.824 310.737 474.166 278.314 480.254 231.358C483.509 206.27 496.771 181.51 519.987 171.498C576.647 147.068 593.439 196.591 594.681 199.319C605.687 223.468 572.738 251.678 560.518 232.023C547.348 210.844 537.096 213.526 527.06 220.979C513.441 231.093 520.682 250.907 533.549 262.791C550.662 278.602 579.771 277.511 598.51 265.118C646.101 233.632 641.488 186.992 612.743 154.539C597.954 137.844 577.517 127.201 555.446 124.163C542.676 121.391 521.41 122.148 501.121 135.936C501.683 135.552 501.574 134.653 501.785 134.008C526.361 59.5098 454.822 0 454.822 0C454.822 0 370.139 60.354 409.979 140.165C410.016 140.236 303.664 105.463 278.05 200.425C268.262 236.723 294.574 265.307 313.671 275.272C332.66 285.18 358.435 283.508 378.204 266.695C388.339 258.075 397.804 249.485 390.749 233.859C384.75 220.575 368.142 217.462 358.443 226.912C328.895 255.704 301.747 222.694 328.627 189.977C354.258 158.779 403.891 164.446 427.301 229.759C434.939 251.069 428.002 270.762 422.462 281.314C404.038 316.42 377.43 322.921 349.389 324.434C400.168 336.433 421.386 377.824 415.611 409.428C377.035 414.759 346.116 395.569 328.906 344.785C324.556 385.057 310.047 417.688 264.189 426.356C236.466 431.593 209.288 420.988 191.362 399.142C176.781 381.368 171.61 361.5 178.739 337.954C184.416 319.209 202.573 306.872 222.043 309.144C236.689 310.856 245.828 319.975 245.894 331.572C245.945 340.671 240.178 348.733 231.756 352.161C216.049 358.548 224.628 393.518 255.812 380.246C302.872 360.217 293.399 281.917 225.379 272.562C173.428 265.418 112.061 317.697 148.841 399.615C78.2724 396.861 31.1495 417.52 0 454.263C50.2598 502.236 99.3281 514.587 147.475 502.813C109.097 596.441 183.126 649.057 233.103 636.648C288.986 622.773 307.839 557.187 259.444 520.117C237.566 503.357 206.971 530.094 233.277 554.988C257.925 578.316 238.322 606.247 207.647 593.179C188.476 585.014 176.587 565.692 177.113 544.877C177.93 512.619 206.831 478.953 251.612 479.278C285.539 478.917 314.791 507.731 316.354 550.091C337.015 505.785 370.289 485.825 406.093 493.632C413.668 529.491 393.49 562.634 349.053 583.007C391.396 584.849 419.991 614.758 422.094 645.517C424.076 693.289 385.618 721.681 353.358 722.288C332.541 722.678 313.298 710.662 305.259 691.436C292.396 660.672 320.449 641.248 343.614 666.055C368.332 692.522 395.266 662.1 378.653 640.115C341.902 591.476 276.199 609.901 261.96 665.696C249.226 715.595 301.352 789.973 395.224 752.201C383.137 800.274 395.164 849.422 442.807 900C479.748 869.092 500.715 822.099 498.419 751.506L498.422 751.504Z" fill="white"/>
</svg>
