<svg width="720" height="283" viewBox="0 0 720 283" fill="none" xmlns="http://www.w3.org/2000/svg">
<path d="M274.356 145.685C272.748 143.374 270.639 141.566 267.926 140.16C269.534 139.054 270.94 137.648 272.045 136.041C273.854 133.428 274.758 130.515 274.758 127.2C274.758 123.884 273.653 120.368 271.442 117.756C269.333 115.144 266.419 113.034 262.903 111.427C259.487 109.92 255.67 108.915 251.45 108.513C250.144 108.513 248.939 108.312 247.632 108.312C244.619 108.312 241.504 108.614 238.39 109.217C233.969 110.02 229.649 111.527 225.631 113.637L224.023 114.441L229.147 127.3L231.156 126.095C233.568 124.688 236.18 123.583 238.892 122.88C241.605 122.076 244.217 121.775 246.728 121.775H247.331C249.541 121.775 251.551 122.076 253.359 122.578C255.167 123.081 256.674 123.884 257.679 124.99C258.583 125.894 259.085 126.999 259.085 128.506C259.085 130.013 258.382 131.52 256.976 132.625C255.469 133.73 253.158 134.333 250.144 134.333H234.572V147.092H251.048C254.564 147.092 257.277 147.694 259.286 148.9C260.994 149.905 261.798 151.311 261.798 153.32C261.798 155.33 261.296 156.435 260.09 157.64C258.784 158.946 256.976 159.85 254.665 160.554C252.455 161.157 250.044 161.558 247.432 161.558C244.819 161.558 247.03 161.558 246.829 161.558C243.915 161.558 240.901 161.056 237.887 160.152C234.974 159.248 232.161 157.942 229.75 156.234L227.741 154.928L222.416 166.883L223.823 167.787C227.339 169.997 231.056 171.705 234.974 172.911C238.892 174.016 242.911 174.719 246.829 174.92H249.139C252.254 174.92 255.268 174.619 258.181 174.016C261.798 173.212 265.013 172.007 267.926 170.399C270.84 168.691 273.15 166.582 274.858 164.07C276.566 161.458 277.47 158.444 277.47 155.129C277.47 151.813 276.466 148.498 274.557 145.786H274.356V145.685Z" fill="white"/>
<path d="M310.319 109.219L280.582 174.018H296.857L302.986 159.953H331.417L337.545 174.018H354.021L324.183 109.219H310.319ZM308.611 147.194L317.251 127.403L325.891 147.194H308.611Z" fill="white"/>
<path d="M495.176 109.219L471.969 147.696L448.46 109.219H435.902V173.918H450.771V139.157L468.151 166.986H475.485L492.765 138.655L492.865 173.918H507.834L507.634 109.219H495.176Z" fill="white"/>
<path d="M538.577 147.696H568.616V134.636H538.577V122.58H572.333V109.219H523.105V173.918H573.639V160.556H538.577V147.696Z" fill="white"/>
<path d="M637.936 120.168C635.625 116.652 632.21 113.839 627.99 111.93C623.871 110.122 618.848 109.117 613.021 109.117H584.389V174.218H599.86V156.335H612.92C618.647 156.335 623.67 155.431 627.789 153.522C632.109 151.613 635.424 148.901 637.735 145.284C640.046 141.768 641.251 137.448 641.251 132.626C641.251 127.803 640.046 123.584 637.735 119.967L637.936 120.168ZM622.665 140.261C620.455 142.069 617.039 142.974 612.519 142.974H599.961V122.68H612.519C617.14 122.68 620.556 123.584 622.665 125.392C624.775 127.1 625.88 129.511 625.88 132.827C625.88 136.142 624.876 138.553 622.665 140.261Z" fill="white"/>
<path d="M376.628 148.701V109.219H361.357V173.918H375.021L405.361 134.636V173.918H420.732V109.219H406.968L376.628 148.701Z" fill="white"/>
<path d="M406.97 88.0195H377.836V101.381H406.97V88.0195Z" fill="white"/>
<path d="M155.307 91.1323C155.307 89.123 156.914 87.5156 158.923 87.5156H182.633C184.642 87.5156 186.25 89.123 186.25 91.1323V118.459H155.307V91.1323Z" fill="white"/>
<path d="M155.307 125.793H186.25V153.119C186.25 155.128 184.642 156.736 182.633 156.736H155.307V125.793Z" fill="white"/>
<path d="M117.029 129.41C117.029 127.4 118.637 125.793 120.646 125.793H147.972V156.736H117.029V129.41Z" fill="white"/>
<path d="M117.029 164.07H147.972V191.397C147.972 193.406 146.365 195.013 144.355 195.013H117.029V164.07Z" fill="white"/>
<path d="M78.7539 167.687C78.7539 165.678 80.3613 164.07 82.3706 164.07H109.697V195.013H82.3706C80.3613 195.013 78.7539 193.406 78.7539 191.397V167.787V167.687Z" fill="white"/>
</svg>
